<?xml version="1.0" encoding="UTF-8" standalone="no"?>
<!-- Generator: Adobe Illustrator 18.1.1, SVG Export Plug-In . SVG Version: 6.00 Build 0)  -->

<svg
   version="1.1"
   id="Layer_1"
   x="0px"
   y="0px"
   viewBox="0 0 103.2 103.2"
   enable-background="new 0 0 960 560"
   xml:space="preserve"
   inkscape:version="1.2.2 (b0a8486541, 2022-12-01)"
   sodipodi:docname="micro-logo-mark.svg"
   width="103.2"
   height="103.2"
   xmlns:inkscape="http://www.inkscape.org/namespaces/inkscape"
   xmlns:sodipodi="http://sodipodi.sourceforge.net/DTD/sodipodi-0.dtd"
   xmlns="http://www.w3.org/2000/svg"
   xmlns:svg="http://www.w3.org/2000/svg"
   xmlns:rdf="http://www.w3.org/1999/02/22-rdf-syntax-ns#"
   xmlns:cc="http://creativecommons.org/ns#"
   xmlns:dc="http://purl.org/dc/elements/1.1/"><metadata
     id="metadata9"><rdf:RDF><cc:Work
         rdf:about=""><dc:format>image/svg+xml</dc:format><dc:type
           rdf:resource="http://purl.org/dc/dcmitype/StillImage" /><dc:title /></cc:Work></rdf:RDF></metadata><defs
     id="defs7" /><sodipodi:namedview
     pagecolor="#ffffff"
     bordercolor="#666666"
     borderopacity="1"
     objecttolerance="10"
     gridtolerance="10"
     guidetolerance="10"
     inkscape:pageopacity="0"
     inkscape:pageshadow="2"
     inkscape:window-width="1920"
     inkscape:window-height="1080"
     id="namedview5"
     showgrid="false"
     fit-margin-top="0"
     fit-margin-left="0"
     fit-margin-right="0"
     fit-margin-bottom="0"
     inkscape:zoom="5.405335"
     inkscape:cx="75.573484"
     inkscape:cy="51.153166"
     inkscape:window-x="0"
     inkscape:window-y="0"
     inkscape:window-maximized="0"
     inkscape:current-layer="Layer_1"
     inkscape:showpageshadow="2"
     inkscape:pagecheckerboard="0"
     inkscape:deskcolor="#d1d1d1" /><path
     d="M 51.6,0 C 23.1,0 0,23.1 0,51.6 c 0,28.5 23.1,51.6 51.6,51.6 28.5,0 51.6,-23.1 51.6,-51.6 C 103.2,23.1 80.1,0 51.6,0 Z m 24.5,58.6 c -0.5,2 -1.3,3.6 -2.4,4.9 -1,1.3 -2,2.1 -3.1,2.5 -1.1,0.4 -2.2,0.6 -3.4,0.6 -1.2,0 -2.2,-0.2 -3,-0.7 C 63.4,65.5 62.8,64.8 62.3,64 61.8,63.2 61.5,62.2 61.3,61.1 61.1,60 61,58.8 61,57.5 c 0,-0.5 0,-1 0.1,-1.7 0.1,-0.7 0.2,-1.6 0.3,-1.6 l -0.2,0 c -1.6,4 -3.8,6.9 -6.6,9.2 -2.8,2.3 -5.9,3.4 -9.3,3.4 -2.3,0 -4.2,-0.9 -5.5,-2.6 -1.4,-1.7 -2.1,-4.3 -2.1,-7.7 0,-0.5 0,-1 0.1,-1.6 0.1,-0.5 0.1,-0.7 0.2,-1.7 l -0.7,0 c -0.9,2 -1.7,4.8 -2.3,7.3 -0.6,2.5 -1.1,4.8 -1.4,6.9 -0.4,2.1 -0.6,4 -0.8,5.6 -0.2,1.6 -0.3,2.7 -0.4,3.3 0.1,0.5 0.2,1 0.3,1.6 0.2,0.6 0.3,1.2 0.5,1.7 0.2,0.5 0.3,1.1 0.4,1.6 0.1,0.5 0.2,0.9 0.2,1.2 0,1.4 -0.3,2.5 -0.9,3.2 -0.6,0.7 -1.3,1.1 -2,1.1 -0.9,0 -1.7,-0.3 -2.3,-0.8 -0.7,-0.6 -1,-1.5 -1,-2.7 0,-1.7 0.3,-3.9 0.9,-6.5 0.6,-2.6 1.5,-5.9 2.6,-9.8 0.6,-1.8 1.1,-3.6 1.7,-5.4 0.6,-1.8 1.1,-3.5 1.6,-5 0.5,-1.5 0.9,-2.9 1.3,-4.1 0.4,-1.2 0.6,-2.1 0.7,-2.8 0.1,-0.3 0.2,-1 0.3,-2 0.1,-1 0.2,-2.1 0.4,-3.4 0.2,-1.3 0.3,-2.7 0.5,-4.1 0.2,-1.5 0.4,-2.8 0.5,-4 0.2,-0.9 0.3,-1.9 0.5,-3 0.2,-1.1 0.5,-2.2 0.9,-3.1 0.4,-1 1,-1.8 1.7,-2.5 0.7,-0.7 1.6,-1 2.7,-1 1.2,0 2,0.4 2.4,1.1 0.4,0.7 0.6,1.6 0.5,2.6 -0.1,1 -0.2,2.1 -0.5,3.2 -0.3,1.1 -0.6,2.1 -0.9,2.9 -0.8,2.5 -1.6,4.8 -2.5,6.7 -0.9,1.9 -1.7,4 -2.4,6.2 -0.6,1.5 -0.8,2.9 -0.8,4.1 0,2.2 0.7,3.8 2,5 1.4,1.2 3,1.7 4.9,1.7 1.5,0 3,-0.5 4.4,-1.6 1.4,-1.1 2.7,-2.4 3.9,-3.9 1.2,-1.5 2.2,-3.1 3,-4.9 0.8,-1.7 1.4,-3.3 1.8,-4.6 0.1,-0.2 0.2,-0.6 0.3,-1.4 0.2,-0.8 0.3,-1.7 0.5,-2.7 0.2,-1 0.4,-2 0.6,-3.1 0.2,-1.1 0.4,-2 0.5,-2.7 0.2,-0.8 0.3,-1.6 0.5,-2.6 0.2,-1 0.5,-1.9 0.9,-2.8 0.4,-0.9 1,-1.6 1.6,-2.2 0.7,-0.6 1.5,-0.9 2.6,-0.9 1.3,0 2.1,0.4 2.6,1.1 0.4,0.7 0.6,1.6 0.6,2.6 -0.1,1 -0.2,2 -0.5,3 -0.3,1 -0.5,1.8 -0.7,2.4 -0.8,2.5 -1.6,4.7 -2.4,6.7 -0.8,2 -1.5,3.8 -2.2,5.2 -0.6,1.5 -1.1,2.6 -1.5,3.5 -0.4,0.9 -0.6,1.5 -0.6,1.8 0,2.6 0.6,4.5 1.7,5.6 1.1,1.1 2.3,1.7 3.6,1.7 2.2,0 3.9,-0.7 5.2,-2 1.3,-1.4 2.3,-3.9 2.9,-6.9 l 0.8,0 c 0.2,2.9 -0.1,5.3 -0.6,7.3 z"
     id="path3"
     inkscape:connector-curvature="0"
     style="fill:#2e3192" /><path
     style="fill:#ffffff;stroke-width:0.185002"
     d="m 29.320064,86.164872 c -1.277771,-0.647664 -1.573829,-1.327981 -1.549788,-3.561297 0.04016,-3.730697 1.622887,-10.030031 5.903272,-23.495306 2.770635,-8.715885 2.799071,-8.822813 3.148729,-11.840154 0.585284,-5.050637 1.565844,-12.45598 1.8369,-13.872547 0.43516,-2.274196 0.976755,-3.690519 1.880879,-4.918684 0.974445,-1.323691 1.896478,-1.826405 3.360953,-1.832474 3.009215,-0.01247 3.55713,2.574946 1.786201,8.434969 -0.742771,2.45784 -2.2493,6.487571 -3.407575,9.114735 -0.420971,0.954834 -1.151241,2.827983 -1.622823,4.162554 -0.839682,2.376289 -0.857669,2.47434 -0.869358,4.739023 -0.01095,2.122185 0.02796,2.3976 0.472736,3.346042 0.91751,1.956495 2.602228,3.131322 5.078862,3.541714 2.587757,0.428804 4.551892,-0.347899 7.187533,-2.842264 2.232774,-2.113092 3.746907,-4.117682 4.998184,-6.617188 1.816108,-3.627792 2.213624,-4.978174 3.527565,-11.983266 0.66466,-3.543546 1.376157,-6.951356 1.581104,-7.57291 0.970636,-2.943689 2.922262,-4.567831 5.096985,-4.241711 1.740397,0.260989 2.500104,1.361773 2.494406,3.614287 -0.0068,2.696563 -2.48184,9.966491 -6.424307,18.870246 l -1.269708,2.867537 0.02005,1.757523 c 0.01504,1.318294 0.119434,2.015481 0.417735,2.789716 1.028756,2.67011 3.517063,4.054736 6.342356,3.529224 3.19144,-0.593617 4.98902,-2.612828 6.217715,-6.984325 0.403553,-1.435775 0.552101,-1.739647 0.850428,-1.739647 0.34646,0 0.356492,0.101757 0.241656,2.451282 -0.238951,4.888854 -1.330826,7.853563 -3.80789,10.339358 -1.255532,1.259957 -1.547319,1.456015 -2.694109,1.81022 -1.395674,0.431082 -3.784736,0.537505 -4.865716,0.216749 -1.759682,-0.522141 -3.031085,-2.027386 -3.686869,-4.364972 -0.336042,-1.197843 -0.516218,-5.455318 -0.283812,-6.706338 0.266094,-1.432359 -0.105859,-1.235144 -0.879069,0.466093 -1.724383,3.794037 -4.750586,7.236231 -8.063683,9.172148 -2.368072,1.383716 -5.903865,2.143782 -8.230062,1.769159 -2.672688,-0.430424 -4.588062,-2.213422 -5.66376,-5.272324 -0.491128,-1.396592 -0.514658,-1.618704 -0.512739,-4.840059 0.0018,-3.093063 -0.02515,-3.376294 -0.321772,-3.376294 -0.414677,0 -0.706335,0.582138 -1.434591,2.863386 -1.443227,4.52088 -2.73082,10.895957 -3.516703,17.411762 l -0.381426,3.162426 0.469219,1.740138 c 0.927877,3.441104 1.066474,4.326417 0.841521,5.375336 -0.537458,2.506081 -2.272098,3.528416 -4.269226,2.516133 z"
     id="path210" /></svg>
